<?xml version="1.0" encoding="utf-8"?>
<!DOCTYPE svg
  PUBLIC '-//W3C//DTD SVG 1.0//EN'
  'http://www.w3.org/TR/2001/REC-SVG-20010904/DTD/svg10.dtd'>
<svg width="518.4" height="218" preserveAspectRatio="xMinYMin meet" viewBox="0 0 518.4 218" xmlns="http://www.w3.org/2000/svg" version="1.0" fill-rule="evenodd" xmlns:xlink="http://www.w3.org/1999/xlink">
	<title>Position and movement accuracy by method and extractor</title>
	<desc>A labeled matrix reports three-seed mean error reductions. Direct supervision has the best position means; the five-frame filter has the best HRNet displacement mean.</desc>
	<clipPath id="clip">
		<rect x="0" y="0" width="518.4" height="218"/>
	</clipPath>
	<g id="group" transform="scale(1,-1) translate(0,-218)" style="clip-path: url(#clip)">
		<g transform="">
			<rect x="0" y="0" width="518.4" height="218" style="stroke: none; stroke-linecap: butt; stroke-width: 1; fill: rgb(100%,100%,100%); fill-rule: evenodd;"/>
			<text x="6" y="206" style="font-family: Arial; font-weight: 700; font-size: 9.2px;fill: rgb(11%,17%,20%); stroke:none;" transform="translate(0,412) scale(1,-1)">Error reduction relative to unchanged tracks (%)</text>
			<text x="456.79775390624997" y="206" style="font-family: Arial; font-size: 8.2px;fill: rgb(32%,38%,41%); stroke:none;" transform="translate(0,412) scale(1,-1)">Higher is better</text>
			<text x="6" y="176" style="font-family: Arial; font-weight: 700; font-size: 8.5px;fill: rgb(32%,38%,41%); stroke:none;" transform="translate(0,352) scale(1,-1)">Method</text>
			<text x="203.62822265625" y="189" style="font-family: Arial; font-weight: 700; font-size: 9.2px;fill: rgb(11%,17%,20%); stroke:none;" transform="translate(0,378) scale(1,-1)">Position accuracy</text>
			<path d="M 160,171 L 326,171 Z" style="stroke: rgb(72%,78%,81%); stroke-linecap: butt; stroke-width: 0.6;"/>
			<text x="173.1662109375" y="176" style="font-family: Arial; font-weight: 700; font-size: 8.4px;fill: rgb(11%,17%,20%); stroke:none;" transform="translate(0,352) scale(1,-1)">HRNet</text>
			<rect x="160" y="158.8" width="52" height="10.400000000000006" style="stroke: none; stroke-linecap: butt; stroke-width: 0; fill: rgb(100%,100%,100%); fill-rule: evenodd;"/>
			<text x="179.8833984375" y="161.0" style="font-family: Arial; font-size: 8.8px;fill: rgb(11%,17%,20%); stroke:none;" transform="translate(0,322) scale(1,-1)">0.0</text>
			<rect x="160" y="147.5" width="52" height="10.400000000000006" style="stroke: none; stroke-linecap: butt; stroke-width: 0; fill: rgb(99%,99%,99%); fill-rule: evenodd;"/>
			<text x="179.8833984375" y="149.7" style="font-family: Arial; font-size: 8.8px;fill: rgb(11%,17%,20%); stroke:none;" transform="translate(0,299) scale(1,-1)">1.3</text>
			<rect x="160" y="136.20000000000002" width="52" height="10.400000000000006" style="stroke: none; stroke-linecap: butt; stroke-width: 0; fill: rgb(99%,99%,99%); fill-rule: evenodd;"/>
			<text x="179.8833984375" y="138.4" style="font-family: Arial; font-size: 8.8px;fill: rgb(11%,17%,20%); stroke:none;" transform="translate(0,276) scale(1,-1)">1.4</text>
			<rect x="160" y="124.89999999999999" width="52" height="10.399999999999991" style="stroke: none; stroke-linecap: butt; stroke-width: 0; fill: rgb(71%,84%,89%); fill-rule: evenodd;"/>
			<text x="177.436328125" y="127.1" style="font-family: Arial; font-size: 8.8px;fill: rgb(11%,17%,20%); stroke:none;" transform="translate(0,254) scale(1,-1)">41.1</text>
			<rect x="160" y="113.6" width="52" height="10.400000000000006" style="stroke: none; stroke-linecap: butt; stroke-width: 0; fill: rgb(71%,84%,89%); fill-rule: evenodd;"/>
			<text x="177.436328125" y="115.8" style="font-family: Arial; font-size: 8.8px;fill: rgb(11%,17%,20%); stroke:none;" transform="translate(0,231) scale(1,-1)">41.4</text>
			<rect x="160" y="102.3" width="52" height="10.400000000000006" style="stroke: none; stroke-linecap: butt; stroke-width: 0; fill: rgb(71%,84%,89%); fill-rule: evenodd;"/>
			<text x="177.436328125" y="104.5" style="font-family: Arial; font-size: 8.8px;fill: rgb(11%,17%,20%); stroke:none;" transform="translate(0,209) scale(1,-1)">42.2</text>
			<rect x="160" y="90.99999999999999" width="52" height="10.400000000000006" style="stroke: none; stroke-linecap: butt; stroke-width: 0; fill: rgb(71%,84%,89%); fill-rule: evenodd;"/>
			<text x="177.436328125" y="93.19999999999999" style="font-family: Arial; font-size: 8.8px;fill: rgb(11%,17%,20%); stroke:none;" transform="translate(0,186) scale(1,-1)">41.5</text>
			<rect x="160" y="79.69999999999999" width="52" height="10.400000000000006" style="stroke: none; stroke-linecap: butt; stroke-width: 0; fill: rgb(71%,84%,89%); fill-rule: evenodd;"/>
			<text x="177.436328125" y="81.89999999999999" style="font-family: Arial; font-size: 8.8px;fill: rgb(11%,17%,20%); stroke:none;" transform="translate(0,163) scale(1,-1)">41.8</text>
			<rect x="160" y="68.39999999999999" width="52" height="10.400000000000006" style="stroke: none; stroke-linecap: butt; stroke-width: 0; fill: rgb(71%,84%,89%); fill-rule: evenodd;"/>
			<text x="177.436328125" y="70.6" style="font-family: Arial; font-size: 8.8px;fill: rgb(11%,17%,20%); stroke:none;" transform="translate(0,141) scale(1,-1)">41.9</text>
			<rect x="160" y="57.099999999999994" width="52" height="10.400000000000006" style="stroke: none; stroke-linecap: butt; stroke-width: 0; fill: rgb(71%,84%,89%); fill-rule: evenodd;"/>
			<text x="177.436328125" y="59.3" style="font-family: Arial; font-size: 8.8px;fill: rgb(11%,17%,20%); stroke:none;" transform="translate(0,118) scale(1,-1)">41.9</text>
			<rect x="160" y="45.8" width="52" height="10.399999999999999" style="stroke: none; stroke-linecap: butt; stroke-width: 0; fill: rgb(77%,87%,91%); fill-rule: evenodd;"/>
			<text x="177.436328125" y="48.0" style="font-family: Arial; font-size: 8.8px;fill: rgb(11%,17%,20%); stroke:none;" transform="translate(0,96) scale(1,-1)">33.6</text>
			<rect x="160" y="34.499999999999986" width="52" height="10.399999999999999" style="stroke: none; stroke-linecap: butt; stroke-width: 0; fill: rgb(70%,83%,89%); fill-rule: evenodd;"/>
			<text x="177.436328125" y="36.69999999999999" style="font-family: Arial; font-size: 8.8px;fill: rgb(11%,17%,20%); stroke:none;" transform="translate(0,73) scale(1,-1)">43.6</text>
			<rect x="160" y="23.199999999999978" width="52" height="10.400000000000002" style="stroke: rgb(7%,49%,52%); stroke-linecap: butt; stroke-width: 0.9; fill: rgb(67%,82%,88%); fill-rule: evenodd;"/>
			<text x="177.436328125" y="25.399999999999977" style="font-family: Arial; font-weight: 700; font-size: 8.8px;fill: rgb(11%,17%,20%); stroke:none;" transform="translate(0,50) scale(1,-1)">47.6</text>
			<text x="223.86416015625" y="176" style="font-family: Arial; font-weight: 700; font-size: 8.4px;fill: rgb(11%,17%,20%); stroke:none;" transform="translate(0,352) scale(1,-1)">RTMPose</text>
			<rect x="217" y="158.8" width="52" height="10.400000000000006" style="stroke: none; stroke-linecap: butt; stroke-width: 0; fill: rgb(100%,100%,100%); fill-rule: evenodd;"/>
			<text x="236.8833984375" y="161.0" style="font-family: Arial; font-size: 8.8px;fill: rgb(11%,17%,20%); stroke:none;" transform="translate(0,322) scale(1,-1)">0.0</text>
			<rect x="217" y="147.5" width="52" height="10.400000000000006" style="stroke: none; stroke-linecap: butt; stroke-width: 0; fill: rgb(99%,99%,99%); fill-rule: evenodd;"/>
			<text x="236.8833984375" y="149.7" style="font-family: Arial; font-size: 8.8px;fill: rgb(11%,17%,20%); stroke:none;" transform="translate(0,299) scale(1,-1)">0.5</text>
			<rect x="217" y="136.20000000000002" width="52" height="10.400000000000006" style="stroke: none; stroke-linecap: butt; stroke-width: 0; fill: rgb(99%,99%,99%); fill-rule: evenodd;"/>
			<text x="236.8833984375" y="138.4" style="font-family: Arial; font-size: 8.8px;fill: rgb(11%,17%,20%); stroke:none;" transform="translate(0,276) scale(1,-1)">0.4</text>
			<rect x="217" y="124.89999999999999" width="52" height="10.399999999999991" style="stroke: none; stroke-linecap: butt; stroke-width: 0; fill: rgb(71%,84%,89%); fill-rule: evenodd;"/>
			<text x="234.436328125" y="127.1" style="font-family: Arial; font-size: 8.8px;fill: rgb(11%,17%,20%); stroke:none;" transform="translate(0,254) scale(1,-1)">42.2</text>
			<rect x="217" y="113.6" width="52" height="10.400000000000006" style="stroke: none; stroke-linecap: butt; stroke-width: 0; fill: rgb(71%,84%,89%); fill-rule: evenodd;"/>
			<text x="234.436328125" y="115.8" style="font-family: Arial; font-size: 8.8px;fill: rgb(11%,17%,20%); stroke:none;" transform="translate(0,231) scale(1,-1)">42.3</text>
			<rect x="217" y="102.3" width="52" height="10.400000000000006" style="stroke: none; stroke-linecap: butt; stroke-width: 0; fill: rgb(70%,84%,89%); fill-rule: evenodd;"/>
			<text x="234.436328125" y="104.5" style="font-family: Arial; font-size: 8.8px;fill: rgb(11%,17%,20%); stroke:none;" transform="translate(0,209) scale(1,-1)">43.1</text>
			<rect x="217" y="90.99999999999999" width="52" height="10.400000000000006" style="stroke: none; stroke-linecap: butt; stroke-width: 0; fill: rgb(71%,84%,89%); fill-rule: evenodd;"/>
			<text x="234.436328125" y="93.19999999999999" style="font-family: Arial; font-size: 8.8px;fill: rgb(11%,17%,20%); stroke:none;" transform="translate(0,186) scale(1,-1)">42.2</text>
			<rect x="217" y="79.69999999999999" width="52" height="10.400000000000006" style="stroke: none; stroke-linecap: butt; stroke-width: 0; fill: rgb(70%,84%,89%); fill-rule: evenodd;"/>
			<text x="234.436328125" y="81.89999999999999" style="font-family: Arial; font-size: 8.8px;fill: rgb(11%,17%,20%); stroke:none;" transform="translate(0,163) scale(1,-1)">43.3</text>
			<rect x="217" y="68.39999999999999" width="52" height="10.400000000000006" style="stroke: none; stroke-linecap: butt; stroke-width: 0; fill: rgb(70%,84%,89%); fill-rule: evenodd;"/>
			<text x="234.436328125" y="70.6" style="font-family: Arial; font-size: 8.8px;fill: rgb(11%,17%,20%); stroke:none;" transform="translate(0,141) scale(1,-1)">42.9</text>
			<rect x="217" y="57.099999999999994" width="52" height="10.400000000000006" style="stroke: none; stroke-linecap: butt; stroke-width: 0; fill: rgb(70%,84%,89%); fill-rule: evenodd;"/>
			<text x="234.436328125" y="59.3" style="font-family: Arial; font-size: 8.8px;fill: rgb(11%,17%,20%); stroke:none;" transform="translate(0,118) scale(1,-1)">42.9</text>
			<rect x="217" y="45.8" width="52" height="10.399999999999999" style="stroke: none; stroke-linecap: butt; stroke-width: 0; fill: rgb(77%,87%,91%); fill-rule: evenodd;"/>
			<text x="234.436328125" y="48.0" style="font-family: Arial; font-size: 8.8px;fill: rgb(11%,17%,20%); stroke:none;" transform="translate(0,96) scale(1,-1)">33.5</text>
			<rect x="217" y="34.499999999999986" width="52" height="10.399999999999999" style="stroke: none; stroke-linecap: butt; stroke-width: 0; fill: rgb(68%,83%,88%); fill-rule: evenodd;"/>
			<text x="234.436328125" y="36.69999999999999" style="font-family: Arial; font-size: 8.8px;fill: rgb(11%,17%,20%); stroke:none;" transform="translate(0,73) scale(1,-1)">46.0</text>
			<rect x="217" y="23.199999999999978" width="52" height="10.400000000000002" style="stroke: rgb(7%,49%,52%); stroke-linecap: butt; stroke-width: 0.9; fill: rgb(67%,82%,87%); fill-rule: evenodd;"/>
			<text x="234.436328125" y="25.399999999999977" style="font-family: Arial; font-weight: 700; font-size: 8.8px;fill: rgb(11%,17%,20%); stroke:none;" transform="translate(0,50) scale(1,-1)">48.0</text>
			<text x="283.42763671875" y="176" style="font-family: Arial; font-weight: 700; font-size: 8.4px;fill: rgb(11%,17%,20%); stroke:none;" transform="translate(0,352) scale(1,-1)">ViTPose</text>
			<rect x="274" y="158.8" width="52" height="10.400000000000006" style="stroke: none; stroke-linecap: butt; stroke-width: 0; fill: rgb(100%,100%,100%); fill-rule: evenodd;"/>
			<text x="293.8833984375" y="161.0" style="font-family: Arial; font-size: 8.8px;fill: rgb(11%,17%,20%); stroke:none;" transform="translate(0,322) scale(1,-1)">0.0</text>
			<rect x="274" y="147.5" width="52" height="10.400000000000006" style="stroke: none; stroke-linecap: butt; stroke-width: 0; fill: rgb(99%,99%,99%); fill-rule: evenodd;"/>
			<text x="293.8833984375" y="149.7" style="font-family: Arial; font-size: 8.8px;fill: rgb(11%,17%,20%); stroke:none;" transform="translate(0,299) scale(1,-1)">0.2</text>
			<rect x="274" y="136.20000000000002" width="52" height="10.400000000000006" style="stroke: none; stroke-linecap: butt; stroke-width: 0; fill: rgb(100%,100%,100%); fill-rule: evenodd;"/>
			<text x="293.8833984375" y="138.4" style="font-family: Arial; font-size: 8.8px;fill: rgb(11%,17%,20%); stroke:none;" transform="translate(0,276) scale(1,-1)">0.0</text>
			<rect x="274" y="124.89999999999999" width="52" height="10.399999999999991" style="stroke: none; stroke-linecap: butt; stroke-width: 0; fill: rgb(75%,86%,90%); fill-rule: evenodd;"/>
			<text x="291.436328125" y="127.1" style="font-family: Arial; font-size: 8.8px;fill: rgb(11%,17%,20%); stroke:none;" transform="translate(0,254) scale(1,-1)">36.0</text>
			<rect x="274" y="113.6" width="52" height="10.400000000000006" style="stroke: none; stroke-linecap: butt; stroke-width: 0; fill: rgb(75%,86%,90%); fill-rule: evenodd;"/>
			<text x="291.436328125" y="115.8" style="font-family: Arial; font-size: 8.8px;fill: rgb(11%,17%,20%); stroke:none;" transform="translate(0,231) scale(1,-1)">36.5</text>
			<rect x="274" y="102.3" width="52" height="10.400000000000006" style="stroke: none; stroke-linecap: butt; stroke-width: 0; fill: rgb(75%,86%,90%); fill-rule: evenodd;"/>
			<text x="291.436328125" y="104.5" style="font-family: Arial; font-size: 8.8px;fill: rgb(11%,17%,20%); stroke:none;" transform="translate(0,209) scale(1,-1)">36.4</text>
			<rect x="274" y="90.99999999999999" width="52" height="10.400000000000006" style="stroke: none; stroke-linecap: butt; stroke-width: 0; fill: rgb(74%,86%,90%); fill-rule: evenodd;"/>
			<text x="291.436328125" y="93.19999999999999" style="font-family: Arial; font-size: 8.8px;fill: rgb(11%,17%,20%); stroke:none;" transform="translate(0,186) scale(1,-1)">36.8</text>
			<rect x="274" y="79.69999999999999" width="52" height="10.400000000000006" style="stroke: none; stroke-linecap: butt; stroke-width: 0; fill: rgb(75%,86%,91%); fill-rule: evenodd;"/>
			<text x="291.436328125" y="81.89999999999999" style="font-family: Arial; font-size: 8.8px;fill: rgb(11%,17%,20%); stroke:none;" transform="translate(0,163) scale(1,-1)">35.7</text>
			<rect x="274" y="68.39999999999999" width="52" height="10.400000000000006" style="stroke: none; stroke-linecap: butt; stroke-width: 0; fill: rgb(75%,86%,90%); fill-rule: evenodd;"/>
			<text x="291.436328125" y="70.6" style="font-family: Arial; font-size: 8.8px;fill: rgb(11%,17%,20%); stroke:none;" transform="translate(0,141) scale(1,-1)">36.1</text>
			<rect x="274" y="57.099999999999994" width="52" height="10.400000000000006" style="stroke: none; stroke-linecap: butt; stroke-width: 0; fill: rgb(75%,86%,90%); fill-rule: evenodd;"/>
			<text x="291.436328125" y="59.3" style="font-family: Arial; font-size: 8.8px;fill: rgb(11%,17%,20%); stroke:none;" transform="translate(0,118) scale(1,-1)">36.1</text>
			<rect x="274" y="45.8" width="52" height="10.399999999999999" style="stroke: none; stroke-linecap: butt; stroke-width: 0; fill: rgb(79%,89%,92%); fill-rule: evenodd;"/>
			<text x="291.436328125" y="48.0" style="font-family: Arial; font-size: 8.8px;fill: rgb(11%,17%,20%); stroke:none;" transform="translate(0,96) scale(1,-1)">29.8</text>
			<rect x="274" y="34.499999999999986" width="52" height="10.399999999999999" style="stroke: none; stroke-linecap: butt; stroke-width: 0; fill: rgb(74%,85%,90%); fill-rule: evenodd;"/>
			<text x="291.436328125" y="36.69999999999999" style="font-family: Arial; font-size: 8.8px;fill: rgb(11%,17%,20%); stroke:none;" transform="translate(0,73) scale(1,-1)">38.0</text>
			<rect x="274" y="23.199999999999978" width="52" height="10.400000000000002" style="stroke: rgb(7%,49%,52%); stroke-linecap: butt; stroke-width: 0.9; fill: rgb(70%,84%,89%); fill-rule: evenodd;"/>
			<text x="291.436328125" y="25.399999999999977" style="font-family: Arial; font-weight: 700; font-size: 8.8px;fill: rgb(11%,17%,20%); stroke:none;" transform="translate(0,50) scale(1,-1)">42.8</text>
			<text x="381.1896484375" y="189" style="font-family: Arial; font-weight: 700; font-size: 9.2px;fill: rgb(11%,17%,20%); stroke:none;" transform="translate(0,378) scale(1,-1)">Movement over 0.20 s</text>
			<path d="M 346,171 L 512,171 Z" style="stroke: rgb(72%,78%,81%); stroke-linecap: butt; stroke-width: 0.6;"/>
			<text x="359.1662109375" y="176" style="font-family: Arial; font-weight: 700; font-size: 8.4px;fill: rgb(11%,17%,20%); stroke:none;" transform="translate(0,352) scale(1,-1)">HRNet</text>
			<rect x="346" y="158.8" width="52" height="10.400000000000006" style="stroke: none; stroke-linecap: butt; stroke-width: 0; fill: rgb(100%,100%,100%); fill-rule: evenodd;"/>
			<text x="365.8833984375" y="161.0" style="font-family: Arial; font-size: 8.8px;fill: rgb(11%,17%,20%); stroke:none;" transform="translate(0,322) scale(1,-1)">0.0</text>
			<rect x="346" y="147.5" width="52" height="10.400000000000006" style="stroke: none; stroke-linecap: butt; stroke-width: 0; fill: rgb(90%,94%,96%); fill-rule: evenodd;"/>
			<text x="363.436328125" y="149.7" style="font-family: Arial; font-size: 8.8px;fill: rgb(11%,17%,20%); stroke:none;" transform="translate(0,299) scale(1,-1)">14.1</text>
			<rect x="346" y="136.20000000000002" width="52" height="10.400000000000006" style="stroke: rgb(7%,49%,52%); stroke-linecap: butt; stroke-width: 0.9; fill: rgb(87%,93%,95%); fill-rule: evenodd;"/>
			<text x="363.436328125" y="138.4" style="font-family: Arial; font-weight: 700; font-size: 8.8px;fill: rgb(11%,17%,20%); stroke:none;" transform="translate(0,276) scale(1,-1)">18.4</text>
			<rect x="346" y="124.89999999999999" width="52" height="10.399999999999991" style="stroke: none; stroke-linecap: butt; stroke-width: 0; fill: rgb(100%,100%,100%); fill-rule: evenodd;"/>
			<text x="365.8833984375" y="127.1" style="font-family: Arial; font-size: 8.8px;fill: rgb(11%,17%,20%); stroke:none;" transform="translate(0,254) scale(1,-1)">0.0</text>
			<rect x="346" y="113.6" width="52" height="10.400000000000006" style="stroke: none; stroke-linecap: butt; stroke-width: 0; fill: rgb(99%,99%,99%); fill-rule: evenodd;"/>
			<text x="365.8833984375" y="115.8" style="font-family: Arial; font-size: 8.8px;fill: rgb(11%,17%,20%); stroke:none;" transform="translate(0,231) scale(1,-1)">0.9</text>
			<rect x="346" y="102.3" width="52" height="10.400000000000006" style="stroke: none; stroke-linecap: butt; stroke-width: 0; fill: rgb(97%,88%,83%); fill-rule: evenodd;"/>
			<text x="363.3138671875" y="104.5" style="font-family: Arial; font-size: 8.8px;fill: rgb(11%,17%,20%); stroke:none;" transform="translate(0,209) scale(1,-1)">−0.1</text>
			<rect x="346" y="90.99999999999999" width="52" height="10.400000000000006" style="stroke: none; stroke-linecap: butt; stroke-width: 0; fill: rgb(97%,88%,83%); fill-rule: evenodd;"/>
			<text x="363.3138671875" y="93.19999999999999" style="font-family: Arial; font-size: 8.8px;fill: rgb(11%,17%,20%); stroke:none;" transform="translate(0,186) scale(1,-1)">−0.7</text>
			<rect x="346" y="79.69999999999999" width="52" height="10.400000000000006" style="stroke: none; stroke-linecap: butt; stroke-width: 0; fill: rgb(97%,88%,83%); fill-rule: evenodd;"/>
			<text x="363.3138671875" y="81.89999999999999" style="font-family: Arial; font-size: 8.8px;fill: rgb(11%,17%,20%); stroke:none;" transform="translate(0,163) scale(1,-1)">−0.2</text>
			<rect x="346" y="68.39999999999999" width="52" height="10.400000000000006" style="stroke: none; stroke-linecap: butt; stroke-width: 0; fill: rgb(100%,100%,100%); fill-rule: evenodd;"/>
			<text x="365.8833984375" y="70.6" style="font-family: Arial; font-size: 8.8px;fill: rgb(11%,17%,20%); stroke:none;" transform="translate(0,141) scale(1,-1)">0.0</text>
			<rect x="346" y="57.099999999999994" width="52" height="10.400000000000006" style="stroke: none; stroke-linecap: butt; stroke-width: 0; fill: rgb(100%,100%,100%); fill-rule: evenodd;"/>
			<text x="365.8833984375" y="59.3" style="font-family: Arial; font-size: 8.8px;fill: rgb(11%,17%,20%); stroke:none;" transform="translate(0,118) scale(1,-1)">0.0</text>
			<rect x="346" y="45.8" width="52" height="10.399999999999999" style="stroke: none; stroke-linecap: butt; stroke-width: 0; fill: rgb(99%,99%,99%); fill-rule: evenodd;"/>
			<text x="365.8833984375" y="48.0" style="font-family: Arial; font-size: 8.8px;fill: rgb(11%,17%,20%); stroke:none;" transform="translate(0,96) scale(1,-1)">0.1</text>
			<rect x="346" y="34.499999999999986" width="52" height="10.399999999999999" style="stroke: none; stroke-linecap: butt; stroke-width: 0; fill: rgb(98%,99%,99%); fill-rule: evenodd;"/>
			<text x="365.8833984375" y="36.69999999999999" style="font-family: Arial; font-size: 8.8px;fill: rgb(11%,17%,20%); stroke:none;" transform="translate(0,73) scale(1,-1)">2.3</text>
			<rect x="346" y="23.199999999999978" width="52" height="10.400000000000002" style="stroke: none; stroke-linecap: butt; stroke-width: 0; fill: rgb(94%,97%,98%); fill-rule: evenodd;"/>
			<text x="365.8833984375" y="25.399999999999977" style="font-family: Arial; font-size: 8.8px;fill: rgb(11%,17%,20%); stroke:none;" transform="translate(0,50) scale(1,-1)">7.4</text>
			<text x="409.86416015625" y="176" style="font-family: Arial; font-weight: 700; font-size: 8.4px;fill: rgb(11%,17%,20%); stroke:none;" transform="translate(0,352) scale(1,-1)">RTMPose</text>
			<rect x="403" y="158.8" width="52" height="10.400000000000006" style="stroke: none; stroke-linecap: butt; stroke-width: 0; fill: rgb(100%,100%,100%); fill-rule: evenodd;"/>
			<text x="422.8833984375" y="161.0" style="font-family: Arial; font-size: 8.8px;fill: rgb(11%,17%,20%); stroke:none;" transform="translate(0,322) scale(1,-1)">0.0</text>
			<rect x="403" y="147.5" width="52" height="10.400000000000006" style="stroke: none; stroke-linecap: butt; stroke-width: 0; fill: rgb(97%,98%,98%); fill-rule: evenodd;"/>
			<text x="422.8833984375" y="149.7" style="font-family: Arial; font-size: 8.8px;fill: rgb(11%,17%,20%); stroke:none;" transform="translate(0,299) scale(1,-1)">4.0</text>
			<rect x="403" y="136.20000000000002" width="52" height="10.400000000000006" style="stroke: none; stroke-linecap: butt; stroke-width: 0; fill: rgb(97%,98%,99%); fill-rule: evenodd;"/>
			<text x="422.8833984375" y="138.4" style="font-family: Arial; font-size: 8.8px;fill: rgb(11%,17%,20%); stroke:none;" transform="translate(0,276) scale(1,-1)">3.1</text>
			<rect x="403" y="124.89999999999999" width="52" height="10.399999999999991" style="stroke: none; stroke-linecap: butt; stroke-width: 0; fill: rgb(100%,100%,100%); fill-rule: evenodd;"/>
			<text x="422.8833984375" y="127.1" style="font-family: Arial; font-size: 8.8px;fill: rgb(11%,17%,20%); stroke:none;" transform="translate(0,254) scale(1,-1)">0.0</text>
			<rect x="403" y="113.6" width="52" height="10.400000000000006" style="stroke: none; stroke-linecap: butt; stroke-width: 0; fill: rgb(100%,100%,100%); fill-rule: evenodd;"/>
			<text x="422.8833984375" y="115.8" style="font-family: Arial; font-size: 8.8px;fill: rgb(11%,17%,20%); stroke:none;" transform="translate(0,231) scale(1,-1)">0.0</text>
			<rect x="403" y="102.3" width="52" height="10.400000000000006" style="stroke: none; stroke-linecap: butt; stroke-width: 0; fill: rgb(99%,99%,99%); fill-rule: evenodd;"/>
			<text x="422.8833984375" y="104.5" style="font-family: Arial; font-size: 8.8px;fill: rgb(11%,17%,20%); stroke:none;" transform="translate(0,209) scale(1,-1)">1.0</text>
			<rect x="403" y="90.99999999999999" width="52" height="10.400000000000006" style="stroke: none; stroke-linecap: butt; stroke-width: 0; fill: rgb(97%,88%,83%); fill-rule: evenodd;"/>
			<text x="420.3138671875" y="93.19999999999999" style="font-family: Arial; font-size: 8.8px;fill: rgb(11%,17%,20%); stroke:none;" transform="translate(0,186) scale(1,-1)">−0.3</text>
			<rect x="403" y="79.69999999999999" width="52" height="10.400000000000006" style="stroke: none; stroke-linecap: butt; stroke-width: 0; fill: rgb(99%,99%,99%); fill-rule: evenodd;"/>
			<text x="422.8833984375" y="81.89999999999999" style="font-family: Arial; font-size: 8.8px;fill: rgb(11%,17%,20%); stroke:none;" transform="translate(0,163) scale(1,-1)">0.9</text>
			<rect x="403" y="68.39999999999999" width="52" height="10.400000000000006" style="stroke: none; stroke-linecap: butt; stroke-width: 0; fill: rgb(99%,99%,99%); fill-rule: evenodd;"/>
			<text x="422.8833984375" y="70.6" style="font-family: Arial; font-size: 8.8px;fill: rgb(11%,17%,20%); stroke:none;" transform="translate(0,141) scale(1,-1)">1.0</text>
			<rect x="403" y="57.099999999999994" width="52" height="10.400000000000006" style="stroke: none; stroke-linecap: butt; stroke-width: 0; fill: rgb(99%,99%,99%); fill-rule: evenodd;"/>
			<text x="422.8833984375" y="59.3" style="font-family: Arial; font-size: 8.8px;fill: rgb(11%,17%,20%); stroke:none;" transform="translate(0,118) scale(1,-1)">1.0</text>
			<rect x="403" y="45.8" width="52" height="10.399999999999999" style="stroke: none; stroke-linecap: butt; stroke-width: 0; fill: rgb(97%,88%,83%); fill-rule: evenodd;"/>
			<text x="420.3138671875" y="48.0" style="font-family: Arial; font-size: 8.8px;fill: rgb(11%,17%,20%); stroke:none;" transform="translate(0,96) scale(1,-1)">−0.2</text>
			<rect x="403" y="34.499999999999986" width="52" height="10.399999999999999" style="stroke: none; stroke-linecap: butt; stroke-width: 0; fill: rgb(97%,98%,99%); fill-rule: evenodd;"/>
			<text x="422.8833984375" y="36.69999999999999" style="font-family: Arial; font-size: 8.8px;fill: rgb(11%,17%,20%); stroke:none;" transform="translate(0,73) scale(1,-1)">3.9</text>
			<rect x="403" y="23.199999999999978" width="52" height="10.400000000000002" style="stroke: rgb(7%,49%,52%); stroke-linecap: butt; stroke-width: 0.9; fill: rgb(93%,96%,97%); fill-rule: evenodd;"/>
			<text x="422.8833984375" y="25.399999999999977" style="font-family: Arial; font-weight: 700; font-size: 8.8px;fill: rgb(11%,17%,20%); stroke:none;" transform="translate(0,50) scale(1,-1)">8.8</text>
			<text x="469.42763671875" y="176" style="font-family: Arial; font-weight: 700; font-size: 8.4px;fill: rgb(11%,17%,20%); stroke:none;" transform="translate(0,352) scale(1,-1)">ViTPose</text>
			<rect x="460" y="158.8" width="52" height="10.400000000000006" style="stroke: none; stroke-linecap: butt; stroke-width: 0; fill: rgb(100%,100%,100%); fill-rule: evenodd;"/>
			<text x="479.8833984375" y="161.0" style="font-family: Arial; font-size: 8.8px;fill: rgb(11%,17%,20%); stroke:none;" transform="translate(0,322) scale(1,-1)">0.0</text>
			<rect x="460" y="147.5" width="52" height="10.400000000000006" style="stroke: none; stroke-linecap: butt; stroke-width: 0; fill: rgb(97%,98%,99%); fill-rule: evenodd;"/>
			<text x="479.8833984375" y="149.7" style="font-family: Arial; font-size: 8.8px;fill: rgb(11%,17%,20%); stroke:none;" transform="translate(0,299) scale(1,-1)">3.8</text>
			<rect x="460" y="136.20000000000002" width="52" height="10.400000000000006" style="stroke: none; stroke-linecap: butt; stroke-width: 0; fill: rgb(97%,98%,99%); fill-rule: evenodd;"/>
			<text x="479.8833984375" y="138.4" style="font-family: Arial; font-size: 8.8px;fill: rgb(11%,17%,20%); stroke:none;" transform="translate(0,276) scale(1,-1)">3.3</text>
			<rect x="460" y="124.89999999999999" width="52" height="10.399999999999991" style="stroke: none; stroke-linecap: butt; stroke-width: 0; fill: rgb(100%,100%,100%); fill-rule: evenodd;"/>
			<text x="479.8833984375" y="127.1" style="font-family: Arial; font-size: 8.8px;fill: rgb(11%,17%,20%); stroke:none;" transform="translate(0,254) scale(1,-1)">0.0</text>
			<rect x="460" y="113.6" width="52" height="10.400000000000006" style="stroke: none; stroke-linecap: butt; stroke-width: 0; fill: rgb(99%,99%,99%); fill-rule: evenodd;"/>
			<text x="479.8833984375" y="115.8" style="font-family: Arial; font-size: 8.8px;fill: rgb(11%,17%,20%); stroke:none;" transform="translate(0,231) scale(1,-1)">1.0</text>
			<rect x="460" y="102.3" width="52" height="10.400000000000006" style="stroke: none; stroke-linecap: butt; stroke-width: 0; fill: rgb(97%,88%,83%); fill-rule: evenodd;"/>
			<text x="477.3138671875" y="104.5" style="font-family: Arial; font-size: 8.8px;fill: rgb(11%,17%,20%); stroke:none;" transform="translate(0,209) scale(1,-1)">−0.6</text>
			<rect x="460" y="90.99999999999999" width="52" height="10.400000000000006" style="stroke: none; stroke-linecap: butt; stroke-width: 0; fill: rgb(97%,88%,83%); fill-rule: evenodd;"/>
			<text x="477.3138671875" y="93.19999999999999" style="font-family: Arial; font-size: 8.8px;fill: rgb(11%,17%,20%); stroke:none;" transform="translate(0,186) scale(1,-1)">−0.3</text>
			<rect x="460" y="79.69999999999999" width="52" height="10.400000000000006" style="stroke: none; stroke-linecap: butt; stroke-width: 0; fill: rgb(97%,88%,83%); fill-rule: evenodd;"/>
			<text x="477.3138671875" y="81.89999999999999" style="font-family: Arial; font-size: 8.8px;fill: rgb(11%,17%,20%); stroke:none;" transform="translate(0,163) scale(1,-1)">−0.7</text>
			<rect x="460" y="68.39999999999999" width="52" height="10.400000000000006" style="stroke: none; stroke-linecap: butt; stroke-width: 0; fill: rgb(97%,88%,83%); fill-rule: evenodd;"/>
			<text x="477.3138671875" y="70.6" style="font-family: Arial; font-size: 8.8px;fill: rgb(11%,17%,20%); stroke:none;" transform="translate(0,141) scale(1,-1)">−0.4</text>
			<rect x="460" y="57.099999999999994" width="52" height="10.400000000000006" style="stroke: none; stroke-linecap: butt; stroke-width: 0; fill: rgb(97%,88%,83%); fill-rule: evenodd;"/>
			<text x="477.3138671875" y="59.3" style="font-family: Arial; font-size: 8.8px;fill: rgb(11%,17%,20%); stroke:none;" transform="translate(0,118) scale(1,-1)">−0.4</text>
			<rect x="460" y="45.8" width="52" height="10.399999999999999" style="stroke: none; stroke-linecap: butt; stroke-width: 0; fill: rgb(97%,88%,83%); fill-rule: evenodd;"/>
			<text x="477.3138671875" y="48.0" style="font-family: Arial; font-size: 8.8px;fill: rgb(11%,17%,20%); stroke:none;" transform="translate(0,96) scale(1,-1)">−0.4</text>
			<rect x="460" y="34.499999999999986" width="52" height="10.399999999999999" style="stroke: none; stroke-linecap: butt; stroke-width: 0; fill: rgb(97%,98%,99%); fill-rule: evenodd;"/>
			<text x="479.8833984375" y="36.69999999999999" style="font-family: Arial; font-size: 8.8px;fill: rgb(11%,17%,20%); stroke:none;" transform="translate(0,73) scale(1,-1)">3.3</text>
			<rect x="460" y="23.199999999999978" width="52" height="10.400000000000002" style="stroke: rgb(7%,49%,52%); stroke-linecap: butt; stroke-width: 0.9; fill: rgb(93%,96%,97%); fill-rule: evenodd;"/>
			<text x="479.8833984375" y="25.399999999999977" style="font-family: Arial; font-weight: 700; font-size: 8.8px;fill: rgb(11%,17%,20%); stroke:none;" transform="translate(0,50) scale(1,-1)">9.0</text>
			<text x="6" y="161.0" style="font-family: Arial; font-size: 8.6px;fill: rgb(11%,17%,20%); stroke:none;" transform="translate(0,322) scale(1,-1)">Unchanged / filter0</text>
			<text x="6" y="149.7" style="font-family: Arial; font-size: 8.6px;fill: rgb(11%,17%,20%); stroke:none;" transform="translate(0,299) scale(1,-1)">3-frame filter</text>
			<text x="6" y="138.4" style="font-family: Arial; font-size: 8.6px;fill: rgb(11%,17%,20%); stroke:none;" transform="translate(0,276) scale(1,-1)">5-frame filter</text>
			<text x="6" y="127.1" style="font-family: Arial; font-size: 8.6px;fill: rgb(11%,17%,20%); stroke:none;" transform="translate(0,254) scale(1,-1)">Joint offset</text>
			<text x="6" y="115.8" style="font-family: Arial; font-size: 8.6px;fill: rgb(11%,17%,20%); stroke:none;" transform="translate(0,231) scale(1,-1)">Joint affine</text>
			<text x="6" y="104.5" style="font-family: Arial; font-size: 8.6px;fill: rgb(11%,17%,20%); stroke:none;" transform="translate(0,209) scale(1,-1)">Untrained encoder</text>
			<text x="6" y="93.19999999999999" style="font-family: Arial; font-size: 8.6px;fill: rgb(11%,17%,20%); stroke:none;" transform="translate(0,186) scale(1,-1)">Coordinate pretraining</text>
			<text x="6" y="81.89999999999999" style="font-family: Arial; font-size: 8.6px;fill: rgb(11%,17%,20%); stroke:none;" transform="translate(0,163) scale(1,-1)">Ordinary JEPA</text>
			<text x="6" y="70.6" style="font-family: Arial; font-weight: 700; font-size: 8.6px;fill: rgb(11%,17%,20%); stroke:none;" transform="translate(0,141) scale(1,-1)">Paired JEPA</text>
			<text x="6" y="59.3" style="font-family: Arial; font-size: 8.6px;fill: rgb(11%,17%,20%); stroke:none;" transform="translate(0,118) scale(1,-1)">Shuffled JEPA</text>
			<text x="6" y="48.0" style="font-family: Arial; font-size: 8.6px;fill: rgb(11%,17%,20%); stroke:none;" transform="translate(0,96) scale(1,-1)">SmoothNet-style</text>
			<text x="6" y="36.69999999999999" style="font-family: Arial; font-size: 8.6px;fill: rgb(11%,17%,20%); stroke:none;" transform="translate(0,73) scale(1,-1)">Static network</text>
			<text x="6" y="25.399999999999977" style="font-family: Arial; font-weight: 700; font-size: 8.6px;fill: rgb(11%,17%,20%); stroke:none;" transform="translate(0,50) scale(1,-1)">Direct supervision</text>
			<path d="M 6,135.75 L 150,135.75 Z" style="stroke: rgb(90%,92%,94%); stroke-linecap: butt; stroke-width: 0.5;"/>
			<path d="M 6,113.15 L 150,113.15 Z" style="stroke: rgb(90%,92%,94%); stroke-linecap: butt; stroke-width: 0.5;"/>
			<path d="M 6,56.65 L 150,56.65 Z" style="stroke: rgb(90%,92%,94%); stroke-linecap: butt; stroke-width: 0.5;"/>
			<text x="6" y="7" style="font-family: Arial; font-size: 7.4px;fill: rgb(32%,38%,41%); stroke:none;" transform="translate(0,14) scale(1,-1)">Shading: 0</text>
			<rect x="45" y="6" width="2" height="7" style="stroke: none; stroke-linecap: butt; stroke-width: 1; fill: rgb(100%,100%,100%); fill-rule: evenodd;"/>
			<rect x="47" y="6" width="2" height="7" style="stroke: none; stroke-linecap: butt; stroke-width: 1; fill: rgb(98%,99%,99%); fill-rule: evenodd;"/>
			<rect x="49" y="6" width="2" height="7" style="stroke: none; stroke-linecap: butt; stroke-width: 1; fill: rgb(96%,98%,98%); fill-rule: evenodd;"/>
			<rect x="51" y="6" width="2" height="7" style="stroke: none; stroke-linecap: butt; stroke-width: 1; fill: rgb(94%,97%,98%); fill-rule: evenodd;"/>
			<rect x="53" y="6" width="2" height="7" style="stroke: none; stroke-linecap: butt; stroke-width: 1; fill: rgb(92%,96%,97%); fill-rule: evenodd;"/>
			<rect x="55" y="6" width="2" height="7" style="stroke: none; stroke-linecap: butt; stroke-width: 1; fill: rgb(91%,95%,96%); fill-rule: evenodd;"/>
			<rect x="57" y="6" width="2" height="7" style="stroke: none; stroke-linecap: butt; stroke-width: 1; fill: rgb(89%,94%,96%); fill-rule: evenodd;"/>
			<rect x="59" y="6" width="2" height="7" style="stroke: none; stroke-linecap: butt; stroke-width: 1; fill: rgb(87%,93%,95%); fill-rule: evenodd;"/>
			<rect x="61" y="6" width="2" height="7" style="stroke: none; stroke-linecap: butt; stroke-width: 1; fill: rgb(85%,92%,94%); fill-rule: evenodd;"/>
			<rect x="63" y="6" width="2" height="7" style="stroke: none; stroke-linecap: butt; stroke-width: 1; fill: rgb(83%,91%,94%); fill-rule: evenodd;"/>
			<rect x="65" y="6" width="2" height="7" style="stroke: none; stroke-linecap: butt; stroke-width: 1; fill: rgb(82%,90%,93%); fill-rule: evenodd;"/>
			<rect x="67" y="6" width="2" height="7" style="stroke: none; stroke-linecap: butt; stroke-width: 1; fill: rgb(80%,89%,92%); fill-rule: evenodd;"/>
			<rect x="69" y="6" width="2" height="7" style="stroke: none; stroke-linecap: butt; stroke-width: 1; fill: rgb(78%,88%,92%); fill-rule: evenodd;"/>
			<rect x="71" y="6" width="2" height="7" style="stroke: none; stroke-linecap: butt; stroke-width: 1; fill: rgb(76%,87%,91%); fill-rule: evenodd;"/>
			<rect x="73" y="6" width="2" height="7" style="stroke: none; stroke-linecap: butt; stroke-width: 1; fill: rgb(74%,86%,90%); fill-rule: evenodd;"/>
			<rect x="75" y="6" width="2" height="7" style="stroke: none; stroke-linecap: butt; stroke-width: 1; fill: rgb(73%,85%,90%); fill-rule: evenodd;"/>
			<rect x="77" y="6" width="2" height="7" style="stroke: none; stroke-linecap: butt; stroke-width: 1; fill: rgb(71%,84%,89%); fill-rule: evenodd;"/>
			<rect x="79" y="6" width="2" height="7" style="stroke: none; stroke-linecap: butt; stroke-width: 1; fill: rgb(69%,83%,88%); fill-rule: evenodd;"/>
			<rect x="81" y="6" width="2" height="7" style="stroke: none; stroke-linecap: butt; stroke-width: 1; fill: rgb(67%,82%,88%); fill-rule: evenodd;"/>
			<rect x="83" y="6" width="2" height="7" style="stroke: none; stroke-linecap: butt; stroke-width: 1; fill: rgb(65%,81%,87%); fill-rule: evenodd;"/>
			<text x="88" y="7" style="font-family: Arial; font-size: 7.4px;fill: rgb(32%,38%,41%); stroke:none;" transform="translate(0,14) scale(1,-1)">50% improvement</text>
			<rect x="209" y="6" width="9" height="7" style="stroke: none; stroke-linecap: butt; stroke-width: 1; fill: rgb(97%,88%,83%); fill-rule: evenodd;"/>
			<text x="221" y="7" style="font-family: Arial; font-size: 7.4px;fill: rgb(32%,38%,41%); stroke:none;" transform="translate(0,14) scale(1,-1)">Negative = worse</text>
			<rect x="377" y="6" width="9" height="7" style="stroke: rgb(7%,49%,52%); stroke-linecap: butt; stroke-width: 0.9; fill: none; fill-rule: evenodd;"/>
			<text x="389" y="7" style="font-family: Arial; font-size: 7.4px;fill: rgb(32%,38%,41%); stroke:none;" transform="translate(0,14) scale(1,-1)">Best mean in column</text>
		</g>
	</g>
</svg>
