<?xml version="1.0" encoding="utf-8"?>
<!DOCTYPE svg
  PUBLIC '-//W3C//DTD SVG 1.0//EN'
  'http://www.w3.org/TR/2001/REC-SVG-20010904/DTD/svg10.dtd'>
<svg width="1000" height="560" preserveAspectRatio="xMinYMin meet" viewBox="0 0 1000 560" xmlns="http://www.w3.org/2000/svg" version="1.0" fill-rule="evenodd" xmlns:xlink="http://www.w3.org/1999/xlink" role="img" aria-labelledby="title desc"><title id="title">01 evidence bridge</title><desc id="desc">The laterality and future-innovation results motivate separate tests of observable motion; their R squared values are not comparable.</desc>
	<title>...</title>
	<desc>...</desc>
	<clipPath id="clip">
		<rect x="0" y="0" width="1000" height="560"/>
	</clipPath>
	<g id="group" transform="scale(1,-1) translate(0,-560)" style="clip-path: url(#clip)">
		<g transform="">
			<rect x="0" y="0" width="1000" height="560" rx="10" ry="10" style="stroke: none; stroke-linecap: butt; stroke-width: 1.2; fill: rgb(96%,97%,98%); fill-rule: evenodd;"/>
			<text x="35" y="522" style="font-family: Helvetica-Bold; font-size: 25px;fill: rgb(9%,16%,22%); stroke:none;" transform="translate(0,1044) scale(1,-1)">Two studies expose different breaks in the evidence chain</text>
			<text x="35" y="492" style="font-family: Helvetica; font-size: 15px;fill: rgb(32%,40%,45%); stroke:none;" transform="translate(0,984) scale(1,-1)">Each result has its own cohort, target, metric and verification boundary.</text>
			<rect x="35" y="175" width="445" height="285" rx="10" ry="10" style="stroke: rgb(80%,85%,89%); stroke-linecap: butt; stroke-width: 1.2; fill: rgb(100%,100%,100%); fill-rule: evenodd;"/>
			<rect x="55" y="412" width="225" height="28" rx="5" ry="5" style="stroke: none; stroke-linecap: butt; stroke-width: 1.2; fill: rgb(47%,32%,64%); fill-rule: evenodd;"/>
			<text x="65" y="421" style="font-family: Helvetica-Bold; font-size: 12px;fill: rgb(100%,100%,100%); stroke:none;" transform="translate(0,842) scale(1,-1)">LATERALITY</text>
			<rect x="520" y="175" width="445" height="285" rx="10" ry="10" style="stroke: rgb(80%,85%,89%); stroke-linecap: butt; stroke-width: 1.2; fill: rgb(100%,100%,100%); fill-rule: evenodd;"/>
			<rect x="540" y="412" width="225" height="28" rx="5" ry="5" style="stroke: none; stroke-linecap: butt; stroke-width: 1.2; fill: rgb(3%,49%,54%); fill-rule: evenodd;"/>
			<text x="550" y="421" style="font-family: Helvetica-Bold; font-size: 12px;fill: rgb(100%,100%,100%); stroke:none;" transform="translate(0,842) scale(1,-1)">FUTURE INNOVATION</text>
			<text x="55" y="379" style="font-family: Helvetica; font-size: 17px;fill: rgb(9%,16%,22%); stroke:none;" transform="translate(0,758) scale(1,-1)">625 clips / 93 source videos</text>
			<text x="55" y="344" style="font-family: Helvetica; font-size: 17px;fill: rgb(9%,16%,22%); stroke:none;" transform="translate(0,688) scale(1,-1)">Hidden-feature matching becomes more consistent.</text>
			<text x="55" y="309" style="font-family: Helvetica; font-size: 17px;fill: rgb(9%,16%,22%); stroke:none;" transform="translate(0,618) scale(1,-1)">Signed movement readout becomes worse.</text>
			<text x="55" y="262" style="font-family: Helvetica-Bold; font-size: 18px;fill: rgb(47%,32%,64%); stroke:none;" transform="translate(0,524) scale(1,-1)">Initial R2 0.223  &gt;  trained 0.101-0.114</text>
			<text x="55" y="226" style="font-family: Helvetica; font-size: 14px;fill: rgb(32%,40%,45%); stroke:none;" transform="translate(0,452) scale(1,-1)">Retained aggregate evidence; local raw predictions</text>
			<text x="55" y="205" style="font-family: Helvetica; font-size: 14px;fill: rgb(32%,40%,45%); stroke:none;" transform="translate(0,410) scale(1,-1)">and fitted checkpoints unavailable.</text>
			<text x="540" y="379" style="font-family: Helvetica; font-size: 17px;fill: rgb(9%,16%,22%); stroke:none;" transform="translate(0,758) scale(1,-1)">50 clips / 43 source videos</text>
			<text x="540" y="344" style="font-family: Helvetica; font-size: 17px;fill: rgb(9%,16%,22%); stroke:none;" transform="translate(0,688) scale(1,-1)">Safe scaling and exact baseline fallback pass checks.</text>
			<text x="540" y="309" style="font-family: Helvetica; font-size: 17px;fill: rgb(9%,16%,22%); stroke:none;" transform="translate(0,618) scale(1,-1)">Skeletons add no supported value beyond RGB.</text>
			<text x="540" y="262" style="font-family: Helvetica-Bold; font-size: 18px;fill: rgb(3%,49%,54%); stroke:none;" transform="translate(0,524) scale(1,-1)">Matched increment: -0.00024242 R2</text>
			<text x="540" y="226" style="font-family: Helvetica; font-size: 14px;fill: rgb(32%,40%,45%); stroke:none;" transform="translate(0,452) scale(1,-1)">Saved models and paired source-bootstrap scores</text>
			<text x="540" y="205" style="font-family: Helvetica; font-size: 14px;fill: rgb(32%,40%,45%); stroke:none;" transform="translate(0,410) scale(1,-1)">independently reconstructed.</text>
			<path d="M 255,173 L 410,129 Z" style="stroke: rgb(47%,32%,64%); stroke-linecap: butt; stroke-width: 2;"/>
			<polygon points="410 129, 401.0684 127.8922, 402.9826 134.6353" style="stroke: none; stroke-linecap: butt; stroke-width: 1; fill: rgb(47%,32%,64%); fill-rule: evenodd;"/>
			<path d="M 745,173 L 590,129 Z" style="stroke: rgb(3%,49%,54%); stroke-linecap: butt; stroke-width: 2;"/>
			<polygon points="590 129, 597.0174 134.6353, 598.9316 127.8922" style="stroke: none; stroke-linecap: butt; stroke-width: 1; fill: rgb(3%,49%,54%); fill-rule: evenodd;"/>
			<rect x="160" y="43" width="680" height="83" rx="10" ry="10" style="stroke: rgb(80%,85%,89%); stroke-linecap: butt; stroke-width: 1.2; fill: rgb(100%,100%,100%); fill-rule: evenodd;"/>
			<text x="187" y="95" style="font-family: Helvetica-Bold; font-size: 20px;fill: rgb(9%,16%,22%); stroke:none;" transform="translate(0,190) scale(1,-1)">Next measurement: access to a declared motion observable</text>
			<text x="187" y="66" style="font-family: Helvetica; font-size: 16px;fill: rgb(32%,40%,45%); stroke:none;" transform="translate(0,132) scale(1,-1)">Separate symmetry, temporal order, prediction and student benefit.</text>
			<text x="35" y="14" style="font-family: Helvetica; font-size: 13px;fill: rgb(32%,40%,45%); stroke:none;" transform="translate(0,28) scale(1,-1)">Evidence synthesis. The two R2 definitions and target spaces must not be compared numerically.</text>
		</g>
	</g>
</svg>
