<?xml version="1.0" encoding="utf-8"?>
<!DOCTYPE svg
  PUBLIC '-//W3C//DTD SVG 1.0//EN'
  'http://www.w3.org/TR/2001/REC-SVG-20010904/DTD/svg10.dtd'>
<svg width="1000" height="610" preserveAspectRatio="xMinYMin meet" viewBox="0 0 1000 610" xmlns="http://www.w3.org/2000/svg" version="1.0" fill-rule="evenodd" xmlns:xlink="http://www.w3.org/1999/xlink" role="img" aria-labelledby="title desc"><title id="title">04 research workflow</title><desc id="desc">Six-stage workflow separating current cached implementation from future teacher extraction, student training and confirmation.</desc>
	<title>...</title>
	<desc>...</desc>
	<clipPath id="clip">
		<rect x="0" y="0" width="1000" height="610"/>
	</clipPath>
	<g id="group" transform="scale(1,-1) translate(0,-610)" style="clip-path: url(#clip)">
		<g transform="">
			<rect x="0" y="0" width="1000" height="610" rx="10" ry="10" style="stroke: none; stroke-linecap: butt; stroke-width: 1.2; fill: rgb(96%,97%,98%); fill-rule: evenodd;"/>
			<text x="35" y="572" style="font-family: Helvetica-Bold; font-size: 25px;fill: rgb(9%,16%,22%); stroke:none;" transform="translate(0,1144) scale(1,-1)">A staged workflow keeps development and confirmation distinct</text>
			<text x="35" y="542" style="font-family: Helvetica; font-size: 15px;fill: rgb(32%,40%,45%); stroke:none;" transform="translate(0,1084) scale(1,-1)">Use the available cache first; acquire new teacher evidence only for the question that needs it.</text>
			<rect x="35" y="447" width="930" height="61" rx="10" ry="10" style="stroke: rgb(80%,85%,89%); stroke-linecap: butt; stroke-width: 1.2; fill: rgb(100%,100%,100%); fill-rule: evenodd;"/>
			<rect x="48" y="466" width="35" height="28" rx="5" ry="5" style="stroke: none; stroke-linecap: butt; stroke-width: 1.2; fill: rgb(3%,49%,54%); fill-rule: evenodd;"/>
			<text x="58" y="475" style="font-family: Helvetica-Bold; font-size: 12px;fill: rgb(100%,100%,100%); stroke:none;" transform="translate(0,950) scale(1,-1)">1</text>
			<text x="103" y="483" style="font-family: Helvetica-Bold; font-size: 18px;fill: rgb(9%,16%,22%); stroke:none;" transform="translate(0,966) scale(1,-1)">Audit and calibrate</text>
			<text x="103" y="461" style="font-family: Helvetica; font-size: 14px;fill: rgb(32%,40%,45%); stroke:none;" transform="translate(0,922) scale(1,-1)">Trace notebooks; verify arithmetic; test known symmetry and order signals.</text>
			<path d="M 65,446 L 65,436 Z" style="stroke: rgb(3%,49%,54%); stroke-linecap: butt; stroke-width: 2;"/>
			<polygon points="65 436, 61.49523 444.2895, 68.50477 444.2895" style="stroke: none; stroke-linecap: butt; stroke-width: 1; fill: rgb(3%,49%,54%); fill-rule: evenodd;"/>
			<rect x="35" y="373" width="930" height="61" rx="10" ry="10" style="stroke: rgb(80%,85%,89%); stroke-linecap: butt; stroke-width: 1.2; fill: rgb(100%,100%,100%); fill-rule: evenodd;"/>
			<rect x="48" y="392" width="35" height="28" rx="5" ry="5" style="stroke: none; stroke-linecap: butt; stroke-width: 1.2; fill: rgb(3%,49%,54%); fill-rule: evenodd;"/>
			<text x="58" y="401" style="font-family: Helvetica-Bold; font-size: 12px;fill: rgb(100%,100%,100%); stroke:none;" transform="translate(0,802) scale(1,-1)">2</text>
			<text x="103" y="409" style="font-family: Helvetica-Bold; font-size: 18px;fill: rgb(9%,16%,22%); stroke:none;" transform="translate(0,818) scale(1,-1)">Freeze the cached panel</text>
			<text x="103" y="387" style="font-family: Helvetica; font-size: 14px;fill: rgb(32%,40%,45%); stroke:none;" transform="translate(0,774) scale(1,-1)">Fix support/current-posture references, grids, controls and source partitions.</text>
			<path d="M 65,372 L 65,362 Z" style="stroke: rgb(3%,49%,54%); stroke-linecap: butt; stroke-width: 2;"/>
			<polygon points="65 362, 61.49523 370.2895, 68.50477 370.2895" style="stroke: none; stroke-linecap: butt; stroke-width: 1; fill: rgb(3%,49%,54%); fill-rule: evenodd;"/>
			<rect x="35" y="299" width="930" height="61" rx="10" ry="10" style="stroke: rgb(80%,85%,89%); stroke-linecap: butt; stroke-width: 1.2; fill: rgb(100%,100%,100%); fill-rule: evenodd;"/>
			<rect x="48" y="318" width="35" height="28" rx="5" ry="5" style="stroke: none; stroke-linecap: butt; stroke-width: 1.2; fill: rgb(3%,49%,54%); fill-rule: evenodd;"/>
			<text x="58" y="327" style="font-family: Helvetica-Bold; font-size: 12px;fill: rgb(100%,100%,100%); stroke:none;" transform="translate(0,654) scale(1,-1)">3</text>
			<text x="103" y="335" style="font-family: Helvetica-Bold; font-size: 18px;fill: rgb(9%,16%,22%); stroke:none;" transform="translate(0,670) scale(1,-1)">Fit and reconstruct</text>
			<text x="103" y="313" style="font-family: Helvetica; font-size: 14px;fill: rgb(32%,40%,45%); stroke:none;" transform="translate(0,626) scale(1,-1)">Train-only transforms; inner selection; outer predictions; paired uncertainty.</text>
			<path d="M 65,298 L 65,288 Z" style="stroke: rgb(3%,49%,54%); stroke-linecap: butt; stroke-width: 2;"/>
			<polygon points="65 288, 61.49523 296.2895, 68.50477 296.2895" style="stroke: none; stroke-linecap: butt; stroke-width: 1; fill: rgb(3%,49%,54%); fill-rule: evenodd;"/>
			<rect x="35" y="225" width="930" height="61" rx="10" ry="10" style="stroke: rgb(80%,85%,89%); stroke-linecap: butt; stroke-width: 1.2; fill: rgb(100%,100%,100%); fill-rule: evenodd;"/>
			<rect x="48" y="244" width="35" height="28" rx="5" ry="5" style="stroke: none; stroke-linecap: butt; stroke-width: 1.2; fill: rgb(47%,32%,64%); fill-rule: evenodd;"/>
			<text x="58" y="253" style="font-family: Helvetica-Bold; font-size: 12px;fill: rgb(100%,100%,100%); stroke:none;" transform="translate(0,506) scale(1,-1)">4</text>
			<text x="103" y="261" style="font-family: Helvetica-Bold; font-size: 18px;fill: rgb(9%,16%,22%); stroke:none;" transform="translate(0,522) scale(1,-1)">Test future targets</text>
			<text x="103" y="239" style="font-family: Helvetica; font-size: 14px;fill: rgb(32%,40%,45%); stroke:none;" transform="translate(0,478) scale(1,-1)">New physical-time windows and mirrored teacher encoding; causal input audits.</text>
			<path d="M 65,224 L 65,214 Z" style="stroke: rgb(47%,32%,64%); stroke-linecap: butt; stroke-width: 2;"/>
			<polygon points="65 214, 61.49523 222.2895, 68.50477 222.2895" style="stroke: none; stroke-linecap: butt; stroke-width: 1; fill: rgb(47%,32%,64%); fill-rule: evenodd;"/>
			<rect x="35" y="151" width="930" height="61" rx="10" ry="10" style="stroke: rgb(80%,85%,89%); stroke-linecap: butt; stroke-width: 1.2; fill: rgb(100%,100%,100%); fill-rule: evenodd;"/>
			<rect x="48" y="170" width="35" height="28" rx="5" ry="5" style="stroke: none; stroke-linecap: butt; stroke-width: 1.2; fill: rgb(47%,32%,64%); fill-rule: evenodd;"/>
			<text x="58" y="179" style="font-family: Helvetica-Bold; font-size: 12px;fill: rgb(100%,100%,100%); stroke:none;" transform="translate(0,358) scale(1,-1)">5</text>
			<text x="103" y="187" style="font-family: Helvetica-Bold; font-size: 18px;fill: rgb(9%,16%,22%); stroke:none;" transform="translate(0,374) scale(1,-1)">Compare student training</text>
			<text x="103" y="165" style="font-family: Helvetica; font-size: 14px;fill: rgb(32%,40%,45%); stroke:none;" transform="translate(0,330) scale(1,-1)">Ordinary S-JEPA, full targets, selected targets and exact no-transfer option.</text>
			<path d="M 65,150 L 65,140 Z" style="stroke: rgb(47%,32%,64%); stroke-linecap: butt; stroke-width: 2;"/>
			<polygon points="65 140, 61.49523 148.2895, 68.50477 148.2895" style="stroke: none; stroke-linecap: butt; stroke-width: 1; fill: rgb(47%,32%,64%); fill-rule: evenodd;"/>
			<rect x="35" y="77" width="930" height="61" rx="10" ry="10" style="stroke: rgb(80%,85%,89%); stroke-linecap: butt; stroke-width: 1.2; fill: rgb(100%,100%,100%); fill-rule: evenodd;"/>
			<rect x="48" y="96" width="35" height="28" rx="5" ry="5" style="stroke: none; stroke-linecap: butt; stroke-width: 1.2; fill: rgb(47%,32%,64%); fill-rule: evenodd;"/>
			<text x="58" y="105" style="font-family: Helvetica-Bold; font-size: 12px;fill: rgb(100%,100%,100%); stroke:none;" transform="translate(0,210) scale(1,-1)">6</text>
			<text x="103" y="113" style="font-family: Helvetica-Bold; font-size: 18px;fill: rgb(9%,16%,22%); stroke:none;" transform="translate(0,226) scale(1,-1)">Confirm on new sources</text>
			<text x="103" y="91" style="font-family: Helvetica; font-size: 14px;fill: rgb(32%,40%,45%); stroke:none;" transform="translate(0,182) scale(1,-1)">Freeze one method and endpoint; include subject-separated evidence.</text>
			<text x="35" y="31" style="font-family: Helvetica; font-size: 15px;fill: rgb(32%,40%,45%); stroke:none;" transform="translate(0,62) scale(1,-1)">Stages 1-3 can use current cached arrays. Later stages need additional empirical evidence.</text>
		</g>
	</g>
</svg>
