<?xml version="1.0" encoding="utf-8" standalone="no"?>
<!DOCTYPE svg PUBLIC "-//W3C//DTD SVG 1.1//EN"
  "http://www.w3.org/Graphics/SVG/1.1/DTD/svg11.dtd">
<svg xmlns:xlink="http://www.w3.org/1999/xlink" width="504pt" height="133.2pt" viewBox="0 0 504 133.2" xmlns="http://www.w3.org/2000/svg" version="1.1">
 <metadata>
  <rdf:RDF xmlns:dc="http://purl.org/dc/elements/1.1/" xmlns:cc="http://creativecommons.org/ns#" xmlns:rdf="http://www.w3.org/1999/02/22-rdf-syntax-ns#">
   <cc:Work>
    <dc:type rdf:resource="http://purl.org/dc/dcmitype/StillImage"/>
    <dc:date>2026-09-28T15:15:14.469163</dc:date>
    <dc:format>image/svg+xml</dc:format>
    <dc:creator>
     <cc:Agent>
      <dc:title>Matplotlib v3.10.8, https://matplotlib.org/</dc:title>
     </cc:Agent>
    </dc:creator>
   </cc:Work>
  </rdf:RDF>
 </metadata>
 <defs>
  <style type="text/css">*{stroke-linejoin: round; stroke-linecap: butt}</style>
 </defs>
 <g id="figure_1">
  <g id="patch_1">
   <path d="M 0 133.2 
L 504 133.2 
L 504 0 
L 0 0 
z
" style="fill: #ffffff"/>
  </g>
  <g id="axes_1">
   <g id="patch_2">
    <path d="M 76.68 61.2 
L 271.8 61.2 
Q 275.04 61.2 275.04 57.96 
L 275.04 35.64 
Q 275.04 32.4 271.8 32.4 
L 76.68 32.4 
Q 73.44 32.4 73.44 35.64 
L 73.44 57.96 
Q 73.44 61.2 76.68 61.2 
z
" clip-path="url(#pfeb3d32c1d)" style="fill: #e9f3f8; stroke: #a3b5c0; stroke-width: 0.65; stroke-linejoin: miter"/>
   </g>
   <g id="patch_3">
    <path d="M 300.6 61.2 
L 495.72 61.2 
Q 498.96 61.2 498.96 57.96 
L 498.96 35.64 
Q 498.96 32.4 495.72 32.4 
L 300.6 32.4 
Q 297.36 32.4 297.36 35.64 
L 297.36 57.96 
Q 297.36 61.2 300.6 61.2 
z
" clip-path="url(#pfeb3d32c1d)" style="fill: #f0f2f4; stroke: #a3b5c0; stroke-width: 0.65; stroke-linejoin: miter"/>
   </g>
   <g id="patch_4">
    <path d="M 76.68 108 
L 271.8 108 
Q 275.04 108 275.04 104.76 
L 275.04 82.44 
Q 275.04 79.2 271.8 79.2 
L 76.68 79.2 
Q 73.44 79.2 73.44 82.44 
L 73.44 104.76 
Q 73.44 108 76.68 108 
z
" clip-path="url(#pfeb3d32c1d)" style="fill: #e9f3f8; stroke: #a3b5c0; stroke-width: 0.65; stroke-linejoin: miter"/>
   </g>
   <g id="patch_5">
    <path d="M 300.6 108 
L 495.72 108 
Q 498.96 108 498.96 104.76 
L 498.96 82.44 
Q 498.96 79.2 495.72 79.2 
L 300.6 79.2 
Q 297.36 79.2 297.36 82.44 
L 297.36 104.76 
Q 297.36 108 300.6 108 
z
" clip-path="url(#pfeb3d32c1d)" style="fill: #f0f2f4; stroke: #a3b5c0; stroke-width: 0.65; stroke-linejoin: miter"/>
   </g>
   <g id="text_1">
    <text style="font-weight: 700; font-size: 10.5px; font-family: 'DejaVu Sans'; text-anchor: start; fill: #233343" x="1.44" y="13.738359" transform="rotate(-0 1.44 13.738359)">Cross actual movement with observation quality</text>
   </g>
   <g id="text_2">
    <text style="font-size: 8px; font-family: 'DejaVu Sans'; text-anchor: end; fill: #556573" x="502.56" y="11.83875" transform="rotate(-0 502.56 11.83875)">PROPOSED</text>
   </g>
   <g id="text_3">
    <text style="font-weight: 700; font-size: 9px; font-family: 'DejaVu Sans'; text-anchor: start; fill: #233343" x="3.6" y="49.283438" transform="rotate(-0 3.6 49.283438)">Trial A</text>
   </g>
   <g id="text_4">
    <text style="font-size: 9px; font-family: 'DejaVu Sans'; text-anchor: middle; fill: #233343" x="174.24" y="49.283438" transform="rotate(-0 174.24 49.283438)">Clear input</text>
   </g>
   <g id="text_5">
    <text style="font-size: 9px; font-family: 'DejaVu Sans'; text-anchor: middle; fill: #233343" x="398.16" y="49.283438" transform="rotate(-0 398.16 49.283438)">Occluded copy</text>
   </g>
   <g id="patch_6">
    <path d="M 280.093939 46.8 
Q 286.201679 46.8 292.309418 46.8 
" style="fill: none; stroke: #556573; stroke-width: 0.8; stroke-linecap: round"/>
    <path d="M 283.693939 48.6 
L 280.093939 46.8 
L 283.693939 45 
" style="fill: none; stroke: #556573; stroke-width: 0.8; stroke-linecap: round"/>
    <path d="M 288.709418 45 
L 292.309418 46.8 
L 288.709418 48.6 
" style="fill: none; stroke: #556573; stroke-width: 0.8; stroke-linecap: round"/>
   </g>
   <g id="text_6">
    <text style="font-weight: 700; font-size: 9px; font-family: 'DejaVu Sans'; text-anchor: start; fill: #233343" x="3.6" y="96.083438" transform="rotate(-0 3.6 96.083438)">Trial B</text>
   </g>
   <g id="text_7">
    <text style="font-size: 9px; font-family: 'DejaVu Sans'; text-anchor: middle; fill: #233343" x="174.24" y="96.083438" transform="rotate(-0 174.24 96.083438)">Clear input</text>
   </g>
   <g id="text_8">
    <text style="font-size: 9px; font-family: 'DejaVu Sans'; text-anchor: middle; fill: #233343" x="398.16" y="96.083438" transform="rotate(-0 398.16 96.083438)">Occluded copy</text>
   </g>
   <g id="patch_7">
    <path d="M 280.093939 93.6 
Q 286.201679 93.6 292.309418 93.6 
" style="fill: none; stroke: #556573; stroke-width: 0.8; stroke-linecap: round"/>
    <path d="M 283.693939 95.4 
L 280.093939 93.6 
L 283.693939 91.8 
" style="fill: none; stroke: #556573; stroke-width: 0.8; stroke-linecap: round"/>
    <path d="M 288.709418 91.8 
L 292.309418 93.6 
L 288.709418 95.4 
" style="fill: none; stroke: #556573; stroke-width: 0.8; stroke-linecap: round"/>
   </g>
   <g id="text_9">
    <text style="font-size: 8px; font-family: 'DejaVu Sans'; text-anchor: middle; fill: #556573" x="285.84" y="26.64" transform="rotate(-0 285.84 26.64)">Same recorded movement within each row</text>
   </g>
   <g id="patch_8">
    <path d="M 174.24 64.637051 
Q 174.24 70.197324 174.24 74.751366 
" style="fill: none; stroke: #0072b2; stroke-width: 0.9; stroke-linecap: round"/>
    <path d="M 176.04 71.151366 
L 174.24 74.751366 
L 172.44 71.151366 
" style="fill: none; stroke: #0072b2; stroke-width: 0.9; stroke-linecap: round"/>
   </g>
   <g id="patch_9">
    <path d="M 398.16 64.637051 
Q 398.16 70.197324 398.16 74.751366 
" style="fill: none; stroke: #0072b2; stroke-width: 0.9; stroke-linecap: round"/>
    <path d="M 399.96 71.151366 
L 398.16 74.751366 
L 396.36 71.151366 
" style="fill: none; stroke: #0072b2; stroke-width: 0.9; stroke-linecap: round"/>
   </g>
   <g id="text_10">
    <text style="font-size: 8.5px; font-family: 'DejaVu Sans'; text-anchor: middle; fill: #0072b2" x="285.84" y="73.625469" transform="rotate(-0 285.84 73.625469)">A → B</text>
   </g>
   <g id="text_11">
    <text style="font-size: 8.5px; font-family: 'DejaVu Sans'; text-anchor: start; fill: #233343" x="73.44" y="128.345469" transform="rotate(-0 73.44 128.345469)">Between rows: preserve each leg’s reference-measured change.</text>
   </g>
  </g>
 </g>
 <defs>
  <clipPath id="pfeb3d32c1d">
   <rect x="0" y="0" width="504" height="133.2"/>
  </clipPath>
 </defs>
</svg>
